<?xml version="1.0" encoding="UTF-8"?>
<svg id="Layer_2" data-name="Layer 2" xmlns="http://www.w3.org/2000/svg" viewBox="0 0 174.46 174.46">
  <defs>
    <style>
      .cls-1 {
        fill: #fff2d9;
      }

      .cls-2 {
        fill: #c1272d;
      }
    </style>
  </defs>
  <g id="Layer_1-2" data-name="Layer 1">
    <g>
      <polygon class="cls-1" points="87.53 64.89 89.37 66.12 87.53 64.77 87.53 64.89"/>
      <path class="cls-1" d="M81.13,59.97h25.34v-6.27h-54.24v68.27h61.62v-6.4h-32.72v-37.39h32.72v-6.27h-32.72v-11.93ZM56.78,120.74h-2.95V54.93h2.95v65.81ZM60.96,120.74h-2.71V54.93h2.71v65.81ZM65.27,120.74h-2.71V54.93h2.71v65.81ZM69.82,120.74h-3.07V54.93h3.07v65.81ZM74.37,120.74h-2.95V54.93h2.95v65.81ZM79.29,120.74h-2.95V54.93h2.95v65.81Z"/>
      <path class="cls-1" d="M87.23,6C42.44,6,6,42.44,6,87.23s36.44,81.23,81.23,81.23,81.23-36.44,81.23-81.23S132.02,6,87.23,6ZM122.09,84.33h-32.72v30.26h25.46v.61l7.26,5.29v7.63h-62.85l-7.13-5.17h-.86V52.72h56.21v.61l7.26,5.29v7.5h-25.34v4.67h25.46v.62l7.26,5.34v7.57Z"/>
      <path class="cls-2" d="M87.23,0C39.13,0,0,39.13,0,87.23s39.13,87.23,87.23,87.23,87.23-39.13,87.23-87.23S135.33,0,87.23,0ZM87.23,168.46c-44.79,0-81.23-36.44-81.23-81.23S42.44,6,87.23,6s81.23,36.44,81.23,81.23-36.44,81.23-81.23,81.23Z"/>
      <rect class="cls-2" x="76.34" y="54.93" width="2.95" height="65.81"/>
      <path class="cls-2" d="M114.83,70.8h-25.46v-4.67l-1.85-1.23v-.12l1.85,1.35h25.34v-7.5l-7.26-5.29v-.61h-56.21v70.23h.86l7.13,5.17h62.85v-7.63l-7.26-5.29v-.61h-25.46v-30.26h32.72v-7.57l-7.26-5.34v-.62ZM113.85,78.18h-32.72v37.39h32.72v6.4h-61.62V53.7h54.24v6.27h-25.34v11.93h32.72v6.27Z"/>
      <rect class="cls-2" x="71.42" y="54.93" width="2.95" height="65.81"/>
      <rect class="cls-2" x="53.83" y="54.93" width="2.95" height="65.81"/>
      <rect class="cls-2" x="58.25" y="54.93" width="2.71" height="65.81"/>
      <rect class="cls-2" x="62.56" y="54.93" width="2.71" height="65.81"/>
      <rect class="cls-2" x="66.74" y="54.93" width="3.07" height="65.81"/>
    </g>
  </g>
</svg>